<?xml version="1.0" encoding="UTF-8"?><svg id="Capa_2" xmlns="http://www.w3.org/2000/svg" viewBox="0 0 190.9 148.13"><defs><style>.cls-1{fill:#455ba6;}</style></defs><g id="Capa_1-2"><path class="cls-1" d="m56.67.54c-9.57,1.86-16.9,11.13-21.11,21.12-4.2,10-3.88,22.86-19.64,36.3-6.98,5.95-10.8,8.21-14.21,17.63-3.96,10.93-.38,26.89,3.87,37.68,2.25,5.71,9.94,15.29,23.74,24.52,15.26,10.2,47.94,15.35,61.74,3.57,3.55-3.03,11.04-8.57,15.21-10.37,8.71-3.74,18.69-1.22,26.81,3.98,3.96,2.54,7.62,5.68,11.74,7.87,9.85,5.23,22,4.29,31.14-2.41,9.14-6.7,14.97-18.95,14.92-31.37-.05-15.22-8.23-29.59-6.87-44.74.99-11.06,5.86-20.08,4.26-31.05-1.17-8.07-6.26-14.89-11.71-19.94-8.77-8.12-30.93-12.54-46.61-2.77-1.34.84-12.21,11.15-22.34,11.15-23.07,0-27.57-25.72-50.96-21.18Z"/></g></svg>