<?xml version="1.0" encoding="UTF-8"?><svg id="Capa_2" xmlns="http://www.w3.org/2000/svg" viewBox="0 0 151.09 164.97"><defs><style>.cls-1{fill:#455ba6;}</style></defs><g id="Capa_1-2"><path class="cls-1" d="m10.26,34.12c1.57,9.86,9.45,18.78,7.62,28.6-.76,4.09-3.16,7.65-5.35,11.18C5.43,85.33-.2,98.24,0,111.7c.21,13.46,7.42,27.44,19.88,32.52,11.69,4.76,18.35,1.9,30.3,5.95,12.31,4.17,17.48,12.26,31.57,14.61.37.06,18.78,2.09,26.87-8.35,10.78-13.91,8.57-17.85,22.43-28.7,4.73-3.7,13.95-14.72,16.96-19.92,2.98-5.15,3.85-20.75,2.34-26.51-3.97-15.13-12.21-20.87-12.1-36.51.08-11.58,3.45-24.27-2.8-34.02C129.93,2.12,118.42-.89,108.22.22c-12.68,1.38-24.01,7.8-36.36,10.53-8.92,1.97-15.36.67-23.86-1.76C30.72,4.04,6.73,11.89,10.26,34.12Z"/></g></svg>