<?xml version="1.0" encoding="UTF-8"?><svg id="Capa_2" xmlns="http://www.w3.org/2000/svg" xmlns:xlink="http://www.w3.org/1999/xlink" viewBox="0 0 243.76 265.39"><defs><style>.cls-1{fill:url(#Degradado_sin_nombre_27);}</style><linearGradient id="Degradado_sin_nombre_27" x1="0" y1="132.7" x2="243.76" y2="132.7" gradientUnits="userSpaceOnUse"><stop offset="0" stop-color="#8fb7ef"/><stop offset="1" stop-color="#c279d3"/></linearGradient></defs><g id="Capa_1-2"><path class="cls-1" d="m48.29,15.42c-12.19-.37-16.77.52-27.1,6.97-2.58,1.61-7.76,7.93-9.81,11.35C1.36,50.49-.5,72.88,9.99,89.67c7.98,12.78,12.45,19.25,14.57,29.22,3.1,14.59-9.76,43.45-15.39,53.07-11.88,20.32-12.72,46.4.48,66.02,13.2,19.62,41.05,30.83,65.12,24.02,13.71-3.88,25.65-12.93,39.93-14.2,12.11-1.08,23.83,3.64,34.93,8.19,9.54,3.91,19.26,7.83,29.63,9.05,10.37,1.22,21.64-.59,29.42-6.98,10.13-8.32,12.07-22.15,11.22-34.57-.85-12.43-3.8-25.02-.87-37.18,2.94-12.22,11.47-22.57,17.72-33.71,6.25-11.13,10.18-24.89,3.65-35.89-6.17-10.4-13-18.26-21.52-27.17-12.06-12.62-9.37-28.34-10.84-45.05-1.47-16.71-16.57-35.39-33.41-42.02-8.16-3.21-17.44-2.74-26.24-1.61-21.96,2.81-33.19,10.18-51.2,19.52-19.88,10.3-26.45-4.26-48.9-4.94Z"/></g></svg>