<?xml version="1.0" encoding="UTF-8"?><svg id="Capa_2" xmlns="http://www.w3.org/2000/svg" viewBox="0 0 1350.33 813.65"><defs><style>.cls-1{fill:none;}.cls-1,.cls-2{opacity:.8;}.cls-3{fill:#a93bc4;}.cls-4{fill:#445aad;}.cls-2{fill:#8d80e8;}.cls-5{fill:#75a2ea;}</style></defs><g id="Capa_1-2"><path class="cls-3" d="m112.56,414.85s33.57-5.1,67.77-38.98l117.19-103.86s39.84-34.27,92.32-16.53c0,0-33.7,6.15-70.4,42.3l-113.53,100.43s-38.5,36.88-93.35,16.63Z"/><path class="cls-2" d="m323.84,293.59s30.95-30.42,66-38.1c0,0,15.53,3.01,36.92,20.78l105.15,92.13s39.17,45.51,75.49,46.41c0,0-52.77,24.68-101.81-22.1l-106.78-94.96s-32.35-32.82-74.98-4.17Z"/><path class="cls-3" d="m532,368.55c3.81,3.6,38.66,44.48,75.49,46.41-.5.36,15.25-3.34,34.09-21.43l121.25-109.13s23.32-19.51,52.07-30.18c0,0-47.06-20.68-98.37,27.55l-103.38,90.86c2.37-2.08-34.96,30.8-81.15-4.09Z"/><path class="cls-5" d="m754.1,292.11s24.07-23.84,60.72-37.97c0,0,17.9,8.7,41.89,25.95,19.48,17.93,95.85,84.44,104.62,91.7,23.68,19.62,51.47,35.47,77.77,41.95,0,0-52.84,23.33-97.11-14.52l-107.52-94.96s-37.44-39.65-80.37-12.15Z"/><path class="cls-4" d="m961.33,371.8s44.18,39.64,77.77,41.95c0,0,15.99-7.99,31.45-21.42l110.5-95.93s19.65-24.07,66.2-41.63c0,0-48.58-18.47-97.3,25.18l-108.87,90.55s-34.39,37.13-79.76,1.29Z"/><rect class="cls-1" width="1350.33" height="813.65"/></g></svg>